<?xml version="1.0" standalone="no"?>
<!DOCTYPE svg PUBLIC "-//W3C//DTD SVG 20010904//EN"
 "http://www.w3.org/TR/2001/REC-SVG-20010904/DTD/svg10.dtd">
<svg version="1.0" xmlns="http://www.w3.org/2000/svg"
 width="2871.000000pt" height="2871.000000pt" viewBox="0 0 2871.000000 2871.000000"
 preserveAspectRatio="xMidYMid meet">
<metadata>
Created by potrace 1.14, written by Peter Selinger 2001-2017
</metadata>
<g transform="translate(0.000000,2871.000000) scale(0.100000,-0.100000)"
fill="#000000" stroke="none">
<path d="M15867 22024 c-1 -1 -78 -4 -172 -8 -93 -4 -190 -8 -215 -11 -25 -2
-76 -6 -115 -10 -38 -3 -86 -8 -105 -10 -117 -14 -145 -17 -160 -20 -9 -2 -41
-6 -71 -10 -74 -9 -219 -33 -309 -51 -41 -9 -88 -18 -105 -21 -16 -2 -129 -29
-250 -58 -600 -148 -1175 -377 -1715 -683 -406 -231 -818 -527 -1175 -845
-106 -94 -422 -410 -515 -516 -41 -46 -80 -89 -85 -95 -6 -6 -30 -36 -55 -66
-25 -30 -47 -57 -50 -60 -3 -3 -28 -33 -54 -67 -27 -35 -53 -63 -58 -63 -4 0
-50 9 -101 20 -79 16 -131 26 -242 45 -51 9 -236 35 -290 40 -33 3 -78 8 -100
11 -141 15 -236 18 -535 19 -298 0 -485 -6 -560 -19 -14 -2 -56 -7 -95 -11
-76 -7 -94 -9 -170 -20 -52 -7 -67 -9 -125 -19 -19 -3 -46 -8 -60 -10 -76 -13
-303 -59 -355 -73 -33 -8 -67 -16 -76 -18 -162 -32 -690 -211 -883 -299 -31
-14 -59 -26 -62 -26 -2 0 -84 -39 -182 -86 -175 -85 -412 -216 -547 -302 -95
-61 -237 -154 -255 -169 -8 -6 -69 -52 -135 -101 -709 -529 -1258 -1188 -1658
-1987 -160 -320 -293 -673 -391 -1042 -25 -92 -48 -184 -51 -203 -3 -19 -10
-48 -15 -65 -5 -16 -12 -43 -15 -60 -3 -16 -12 -68 -20 -115 -8 -47 -17 -94
-19 -105 -2 -11 -7 -45 -11 -75 -4 -30 -9 -63 -11 -74 -3 -18 -9 -67 -19 -166
-4 -30 -8 -68 -10 -85 -13 -106 -20 -277 -20 -530 0 -360 9 -513 51 -820 14
-106 19 -136 28 -180 2 -11 7 -40 11 -65 3 -25 22 -117 42 -205 30 -137 55
-233 113 -440 75 -264 237 -663 393 -970 78 -152 263 -468 278 -473 5 -2 9 -8
9 -13 0 -8 88 -144 112 -174 5 -5 41 -55 82 -110 191 -261 452 -552 701 -780
50 -46 267 -229 315 -265 25 -19 47 -37 50 -40 10 -12 199 -148 300 -216 209
-141 426 -268 667 -388 238 -118 490 -222 748 -307 169 -56 371 -113 508 -145
9 -2 25 -6 35 -8 14 -4 121 -25 252 -51 28 -6 53 -10 120 -20 25 -4 52 -9 60
-10 8 -2 58 -8 110 -14 52 -7 109 -14 127 -16 17 -3 64 -7 105 -10 40 -3 100
-8 133 -11 33 -3 141 -7 240 -9 206 -4 278 7 384 58 78 38 184 138 225 212 42
75 75 185 82 269 l7 74 683 1 682 0 25 -62 c29 -70 37 -91 177 -457 129 -339
155 -399 203 -468 73 -106 180 -198 278 -240 156 -67 369 -59 506 20 45 26
152 109 173 135 54 66 81 104 104 150 52 104 61 142 61 258 0 121 7 94 -122
425 -25 63 -49 126 -53 140 -4 14 -15 42 -24 62 l-16 37 901 -2 900 -2 158
-410 c87 -225 167 -432 180 -459 109 -245 345 -408 581 -400 133 4 210 28 314
97 183 122 296 319 296 517 0 36 -5 83 -11 105 -12 43 -111 308 -136 364 -8
18 -19 45 -23 60 -4 14 -17 49 -28 77 l-21 52 898 0 899 0 16 -36 c8 -21 49
-125 90 -232 41 -107 79 -206 84 -220 6 -14 37 -92 68 -175 96 -253 135 -327
223 -418 221 -231 543 -256 798 -63 224 170 310 456 208 691 -11 26 -80 205
-150 391 l-23 60 706 -1 c389 -1 712 -3 717 -3 6 -1 11 -14 10 -29 -2 -79 37
-216 85 -300 83 -146 210 -235 381 -268 66 -12 285 -13 427 -1 37 4 96 9 132
12 55 4 250 31 370 50 19 3 85 16 147 29 61 14 122 26 135 29 79 15 435 120
493 145 11 5 49 19 85 32 166 58 467 195 655 299 536 294 1033 707 1426 1185
135 164 356 479 425 605 10 19 24 42 30 50 25 33 163 301 219 425 48 107 55
122 96 227 74 184 187 545 215 681 2 10 5 26 8 35 3 9 8 33 11 52 3 19 8 42
10 50 5 17 9 38 29 160 18 102 24 146 32 208 2 26 7 56 8 67 21 118 29 687 13
874 -8 91 -10 110 -23 216 -14 122 -43 290 -79 457 -15 69 -83 314 -117 418
-105 326 -281 713 -457 1005 -50 82 -202 315 -223 340 -5 5 -32 42 -60 80 -29
39 -56 75 -60 80 -64 81 -106 132 -118 145 -8 9 -40 45 -70 81 -55 65 -344
357 -435 440 -43 39 -282 230 -370 296 -66 50 -286 194 -385 252 -58 34 -116
69 -130 77 -30 18 -323 162 -400 197 -98 43 -342 135 -469 175 -123 39 -124
40 -139 78 -88 228 -303 684 -391 832 -17 29 -31 55 -31 57 0 12 -169 285
-273 440 -144 215 -386 539 -469 626 -7 8 -28 32 -47 54 -326 386 -803 816
-1266 1140 -93 65 -392 256 -440 280 -16 9 -57 31 -90 50 -246 143 -649 327
-971 443 -193 71 -606 192 -734 216 -14 2 -83 16 -155 31 -71 14 -146 28 -165
31 -19 3 -62 10 -95 16 -83 14 -92 15 -159 23 -32 4 -68 8 -80 10 -32 5 -123
14 -206 21 -41 3 -91 7 -110 9 -83 10 -605 25 -613 19z"/>
</g>
</svg>
