<?xml version="1.0" standalone="no"?>
<!DOCTYPE svg PUBLIC "-//W3C//DTD SVG 20010904//EN"
 "http://www.w3.org/TR/2001/REC-SVG-20010904/DTD/svg10.dtd">
<svg version="1.0" xmlns="http://www.w3.org/2000/svg"
 width="152.000000pt" height="152.000000pt" viewBox="0 0 152.000000 152.000000"
 preserveAspectRatio="xMidYMid meet">
<metadata>
Created by potrace 1.14, written by Peter Selinger 2001-2017
</metadata>
<g transform="translate(0.000000,152.000000) scale(0.100000,-0.100000)"
fill="#000000" stroke="none">
<path d="M726 1164 c-61 -19 -106 -48 -163 -103 -9 -9 -40 -15 -81 -16 -37 -1
-77 -5 -89 -8 -96 -25 -177 -105 -206 -203 -30 -103 -5 -212 68 -292 66 -73
206 -123 245 -87 19 17 63 26 77 16 5 -3 14 -19 21 -34 17 -39 57 -35 57 6 -1
15 2 27 5 28 3 0 22 2 44 3 34 1 40 -2 54 -31 11 -23 23 -33 39 -33 22 0 25 4
27 44 1 16 9 20 39 21 45 1 49 -1 65 -38 17 -39 55 -34 62 8 4 25 10 30 33 30
16 0 34 -8 41 -17 29 -40 162 6 222 76 111 130 67 322 -94 405 -21 11 -43 32
-50 48 -29 70 -137 162 -209 179 -58 14 -159 13 -207 -2z"/>
</g>
</svg>
